<?xml version="1.0" encoding="UTF-8" standalone="no"?>
<!-- Created with Inkscape (http://www.inkscape.org/) -->

<svg
   width="64pt"
   height="64pt"
   viewBox="0 0 22.577778 22.577778"
   version="1.1"
   id="svg831"
   inkscape:version="1.1.2 (b8e25be833, 2022-02-05)"
   sodipodi:docname="Export - Unblash - 64px.svg"
   inkscape:export-filename="E:\Project Design\TR Icon Design Project\Carlos - Icon Design Project\September\Done\100%\Filedline\16 - Pressure Cooker.png"
   inkscape:export-xdpi="576"
   inkscape:export-ydpi="576"
   xmlns:inkscape="http://www.inkscape.org/namespaces/inkscape"
   xmlns:sodipodi="http://sodipodi.sourceforge.net/DTD/sodipodi-0.dtd"
   xmlns="http://www.w3.org/2000/svg"
   xmlns:svg="http://www.w3.org/2000/svg"
   xmlns:rdf="http://www.w3.org/1999/02/22-rdf-syntax-ns#"
   xmlns:cc="http://creativecommons.org/ns#"
   xmlns:dc="http://purl.org/dc/elements/1.1/">
  <defs
     id="defs825">
    <pattern
       id="EMFhbasepattern"
       patternUnits="userSpaceOnUse"
       width="6"
       height="6"
       x="0"
       y="0" />
    <pattern
       id="EMFhbasepattern-9"
       patternUnits="userSpaceOnUse"
       width="6"
       height="6"
       x="0"
       y="0" />
    <pattern
       id="EMFhbasepattern-0"
       patternUnits="userSpaceOnUse"
       width="6"
       height="6"
       x="0"
       y="0" />
    <pattern
       id="EMFhbasepattern-7"
       patternUnits="userSpaceOnUse"
       width="6"
       height="6"
       x="0"
       y="0" />
    <pattern
       id="EMFhbasepattern-2"
       patternUnits="userSpaceOnUse"
       width="6"
       height="6"
       x="0"
       y="0" />
    <pattern
       id="EMFhbasepattern-98"
       patternUnits="userSpaceOnUse"
       width="6"
       height="6"
       x="0"
       y="0" />
    <pattern
       id="EMFhbasepattern-6"
       patternUnits="userSpaceOnUse"
       width="6"
       height="6"
       x="0"
       y="0" />
    <pattern
       id="EMFhbasepattern-01"
       patternUnits="userSpaceOnUse"
       width="6"
       height="6"
       x="0"
       y="0" />
    <pattern
       id="EMFhbasepattern-07"
       patternUnits="userSpaceOnUse"
       width="6"
       height="6"
       x="0"
       y="0" />
    <pattern
       id="EMFhbasepattern-8"
       patternUnits="userSpaceOnUse"
       width="6"
       height="6"
       x="0"
       y="0" />
    <pattern
       id="EMFhbasepattern-4"
       patternUnits="userSpaceOnUse"
       width="6"
       height="6"
       x="0"
       y="0" />
    <pattern
       id="EMFhbasepattern-40"
       patternUnits="userSpaceOnUse"
       width="6"
       height="6"
       x="0"
       y="0" />
    <pattern
       id="EMFhbasepattern-08"
       patternUnits="userSpaceOnUse"
       width="6"
       height="6"
       x="0"
       y="0" />
    <pattern
       id="EMFhbasepattern-04"
       patternUnits="userSpaceOnUse"
       width="6"
       height="6"
       x="0"
       y="0" />
    <pattern
       id="EMFhbasepattern-014"
       patternUnits="userSpaceOnUse"
       width="6"
       height="6"
       x="0"
       y="0" />
    <pattern
       id="EMFhbasepattern-27"
       patternUnits="userSpaceOnUse"
       width="6"
       height="6"
       x="0"
       y="0" />
    <pattern
       id="EMFhbasepattern-09"
       patternUnits="userSpaceOnUse"
       width="6"
       height="6"
       x="0"
       y="0" />
    <pattern
       id="EMFhbasepattern-5"
       patternUnits="userSpaceOnUse"
       width="6"
       height="6"
       x="0"
       y="0" />
    <pattern
       id="EMFhbasepattern-018"
       patternUnits="userSpaceOnUse"
       width="6"
       height="6"
       x="0"
       y="0" />
  </defs>
  <sodipodi:namedview
     id="base"
     pagecolor="#ffffff"
     bordercolor="#666666"
     borderopacity="1.0"
     inkscape:pageopacity="0.0"
     inkscape:pageshadow="2"
     inkscape:zoom="8.7304688"
     inkscape:cx="41.063087"
     inkscape:cy="47.305593"
     inkscape:document-units="pt"
     inkscape:current-layer="layer1"
     showgrid="false"
     units="pt"
     inkscape:window-width="958"
     inkscape:window-height="1041"
     inkscape:window-x="953"
     inkscape:window-y="0"
     inkscape:window-maximized="0"
     inkscape:pagecheckerboard="true"
     inkscape:showpageshadow="false"
     inkscape:object-paths="true"
     inkscape:snap-intersection-paths="true"
     inkscape:snap-smooth-nodes="true"
     inkscape:snap-midpoints="true"
     showguides="true"
     inkscape:snap-bbox="true"
     inkscape:bbox-nodes="true"
     inkscape:snap-nodes="false"
     inkscape:snap-global="true"
     inkscape:snap-others="false">
    <inkscape:grid
       type="xygrid"
       id="grid1378" />
    <sodipodi:guide
       position="0.97013831,21.607643"
       orientation="78.000048,0"
       id="guide1380"
       inkscape:locked="false" />
    <sodipodi:guide
       position="0.97013831,0.97013129"
       orientation="0,78.000005"
       id="guide1382"
       inkscape:locked="false" />
    <sodipodi:guide
       position="21.607639,0.97013129"
       orientation="-78.000048,0"
       id="guide1384"
       inkscape:locked="false" />
    <sodipodi:guide
       position="21.607639,21.607643"
       orientation="0,-78.000005"
       id="guide1386"
       inkscape:locked="false" />
  </sodipodi:namedview>
  <metadata
     id="metadata828">
    <rdf:RDF>
      <cc:Work
         rdf:about="">
        <dc:format>image/svg+xml</dc:format>
        <dc:type
           rdf:resource="http://purl.org/dc/dcmitype/StillImage" />
      </cc:Work>
    </rdf:RDF>
  </metadata>
  <g
     inkscape:label="Icon"
     inkscape:groupmode="layer"
     id="layer1"
     transform="translate(0,-274.42223)">
    <g
       id="g42350"
       style="display:inline;stroke-width:0.794897"
       transform="matrix(1.2580249,0,0,1.2580249,39.01088,-157.15556)">
      <g
         id="g23429"
         style="display:inline;stroke-width:0.794897">
        <path
           style="color:#000000;fill:#adadad;stroke-width:0.794897;stroke-linecap:round;stroke-linejoin:round;-inkscape-stroke:none"
           d="m -17.392321,355.00781 -9.244757,0.0684 c -0.144645,0.002 -0.261214,0.11902 -0.261719,0.26367 v 1.96518 c -5.65e-4,0.14617 0.117499,0.26511 0.263672,0.26563 h 9.244758 c 0.146172,-5.2e-4 0.264235,-0.11946 0.263671,-0.26563 v -2.03354 c -5.19e-4,-0.14617 -0.119456,-0.26423 -0.265625,-0.26367 z"
           id="path34117"
           sodipodi:nodetypes="cccccccccc" />
        <path
           id="path330553"
           style="fill:#8f8f8f;fill-opacity:1;stroke-width:3.00434;stroke-linecap:round;stroke-linejoin:round"
           d="m -94.783203,283.45312 -6.511717,0.0469 a 1.0001006,1.0001006 0 0 0 -0.98828,0.99805 v 6.50976 h 2.996091 c 2.472831,0 4.503887,-2.04143 4.503906,-4.50976 z"
           transform="matrix(0.26458334,0,0,0.26458334,0,280.06666)" />
        <path
           id="path328787"
           style="fill:#8f8f8f;fill-opacity:1;stroke-width:3.00434;stroke-linecap:round;stroke-linejoin:round"
           d="m -65.292969,283.24219 -6.6875,0.0488 v 3.20703 c 0,2.51115 2.081548,4.56684 4.591797,4.53906 l 1.136719,-0.0137 c 0.672833,-0.009 1.328659,-0.0872 1.962891,-0.22656 v -6.5586 a 1.0001006,1.0001006 0 0 0 -1.003907,-0.99609 z"
           transform="matrix(0.26458334,0,0,0.26458334,0,280.06666)" />
        <path
           id="path319123"
           style="color:#000000;fill:#8f8f8f;fill-opacity:1;stroke-width:3.00434;stroke-linecap:round;stroke-linejoin:round;-inkscape-stroke:none"
           d="m -68.289062,283.26367 -30,0.21485 v 5.01953 a 1.0001006,1.0001006 0 0 0 1.003906,1.0039 h 27.998047 a 1.0001006,1.0001006 0 0 0 0.998047,-1.0039 z"
           transform="matrix(0.26458334,0,0,0.26458334,0,280.06666)" />
        <path
           style="color:#000000;fill:#adadad;stroke-width:0.794897;stroke-linecap:round;stroke-linejoin:round;-inkscape-stroke:none"
           d="m -29.445312,351.04058 c -0.146169,5.2e-4 -0.264231,0.11945 -0.263672,0.26562 v 2.30739 c 5.16e-4,0.14541 0.118264,0.26316 0.263672,0.26367 h 2.117187 c 0.14617,5.7e-4 0.265107,-0.1175 0.265625,-0.26367 v -2.30739 c 5.62e-4,-0.14693 -0.118693,-0.26618 -0.265625,-0.26562 z"
           id="path33137"
           sodipodi:nodetypes="ccccccccc" />
        <path
           style="color:#000000;fill:#cccccc;stroke-width:0.794897;stroke-linecap:round;stroke-linejoin:round;-inkscape-stroke:none"
           d="m -27.683662,344.53896 c -0.415996,0 -0.75793,0.3438 -0.757933,0.7598 v 1.01182 a 0.25291859,0.25291859 0 0 0 0.252022,0.25202 h 2.781576 a 0.25291859,0.25291859 0 0 0 0.253889,-0.25202 v -1.01182 c 0,-0.416 -0.343805,-0.7598 -0.7598,-0.7598 z"
           id="path33751" />
        <path
           style="color:#000000;fill:#3a4d5c;stroke-width:0.794897;stroke-linecap:round;stroke-linejoin:round;-inkscape-stroke:none"
           d="m -16.22265,354.75427 h 0.949476 c 0.435247,0 0.792975,-0.35967 0.792969,-0.79492 v -2.59445 c 0,-0.43524 -0.357857,-0.78221 -0.792969,-0.79297 h -0.945576 z"
           id="path36988"
           sodipodi:nodetypes="cscsscc" />
        <path
           style="color:#000000;fill:#ececec;stroke-width:0.794897;stroke-linecap:round;stroke-linejoin:round;-inkscape-stroke:none"
           d="m -25.611611,349.41956 c -0.146169,-5.6e-4 -0.265106,0.1175 -0.265625,0.26367 v 6.04559 c -5.67e-4,0.14694 0.11869,0.2662 0.265625,0.26563 h 7.16265 c 0.146172,-5.1e-4 0.264236,-0.11945 0.263672,-0.26563 v -6.04559 c -5.16e-4,-0.14541 -0.118265,-0.26315 -0.263672,-0.26367 z"
           id="path36235"
           sodipodi:nodetypes="ccccccccc" />
        <path
           id="path305185"
           style="color:#000000;fill:#cccccc;fill-opacity:1;stroke-width:3.00434;stroke-linecap:round;stroke-linejoin:round;-inkscape-stroke:none"
           d="m -97.285156,286.92743 h 2.996094 v -21.42352 c 0,-1.3519 -0.164702,-2.34216 -0.488282,-3.64841 h -2.507812 z"
           transform="matrix(0.26458334,0,0,0.26458334,0,280.06666)"
           sodipodi:nodetypes="ccsccc" />
        <path
           style="color:#000000;fill:#cccccc;stroke-width:0.794895;stroke-linecap:round;stroke-linejoin:round;-inkscape-stroke:none"
           d="m -23.303207,347.73818 a 0.25056999,0.25056999 0 0 0 -0.249682,0.24968 v 1.75517 c 0,0.27376 0.227435,0.50121 0.501213,0.50121 h 1.50179 c 0.273778,0 0.501212,-0.22745 0.501212,-0.50121 v -1.75517 a 0.25056999,0.25056999 0 0 0 -0.249681,-0.24968 z"
           id="path36427" />
        <path
           style="color:#000000;fill:#cccccc;stroke-width:0.794897;stroke-linecap:round;stroke-linejoin:round;-inkscape-stroke:none"
           d="m -17.541016,348.84542 -0.300781,0.004 c -0.415016,0.005 -0.753906,0.34862 -0.753906,0.76367 v 6.10414 c 0,0.4154 0.344916,0.75654 0.759766,0.75195 l 0.300781,-0.004 c 1.168402,-0.0149 2.113281,-0.97214 2.113281,-2.14063 0,-1.22262 -2e-6,-2.16472 0,-3.38734 0,-1.16324 -0.955986,-2.10663 -2.119141,-2.09179 z"
           id="path36793"
           sodipodi:nodetypes="ccssccssc" />
        <path
           style="color:#000000;fill:#cccccc;stroke-width:0.794897;stroke-linecap:round;stroke-linejoin:round;-inkscape-stroke:none"
           d="m -27.309402,346.78913 a 0.25524998,0.25524998 0 0 0 -0.254345,0.25622 v 0.69333 l -0.212897,0.53884 c -0.197095,0.50052 -0.297677,1.03522 -0.297678,1.57317 v 5.86877 c 3e-6,0.41985 0.345072,0.7668 0.76492,0.7668 h 1.021148 c 0.419848,0 0.764917,-0.34695 0.76492,-0.7668 v -5.86877 c 0,-0.53831 -0.101199,-1.07162 -0.301446,-1.57129 l -0.209128,-0.51811 v -0.71594 a 0.25524998,0.25524998 0 0 0 -0.254346,-0.25622 z"
           id="path33143" />
        <path
           style="color:#000000;fill:#3a4d5c;stroke-width:0.794897;stroke-linecap:round;stroke-linejoin:round;-inkscape-stroke:none"
           d="m -28.189573,345.58586 c -0.416015,0 -0.757933,0.34379 -0.757933,0.7598 3e-6,0.41602 0.34192,0.75793 0.757933,0.75793 h 2.781576 c 0.416015,10e-6 0.7598,-0.34191 0.7598,-0.75793 -3e-6,-0.41601 -0.343787,-0.7598 -0.7598,-0.7598 z"
           id="path33757" />
        <path
           style="color:#000000;fill:#3a4d5c;stroke-width:0.794897;stroke-linecap:round;stroke-linejoin:round;-inkscape-stroke:none"
           d="m -29.445276,349.37279 c -0.419214,0 -0.763766,0.34455 -0.763763,0.76376 v 4.58635 c -3e-6,0.41921 0.344549,0.76564 0.763763,0.76564 0.419213,0 0.765646,-0.34643 0.765643,-0.76564 v -4.58635 c 3e-6,-0.41921 -0.34643,-0.76376 -0.765643,-0.76376 z"
           id="path33131" />
        <path
           style="color:#000000;fill:#3a4d5c;stroke-width:0.794897;stroke-linecap:round;stroke-linejoin:round;-inkscape-stroke:none"
           d="m -23.545151,347.18544 c -0.272075,0 -0.498115,0.22604 -0.498115,0.49812 v 0.49812 c 0,0.27207 0.22604,0.49811 0.498115,0.49811 h 2.488739 c 0.272075,0 0.498115,-0.22604 0.498115,-0.49811 v -0.49812 c 0,-0.27208 -0.22604,-0.49812 -0.498115,-0.49812 z"
           id="path36433" />
        <path
           style="color:#000000;fill:#3a4d5c;stroke-width:3.00434;stroke-linecap:round;stroke-linejoin:round;-inkscape-stroke:none"
           d="m -64.81943,292.5 2.22e-4,-0.99805 -37.066502,0.66291 2.6e-4,0.99805 c 0,0.85877 -0.58093,1.00391 -1.30664,1.00391 h -7.74342 c -1.64502,0 -2.99805,0.68818 -2.99805,2.33318 v 0.99609 c 0,1.64501 1.35303,2.56392 2.99805,2.56392 h 55.254559 c 1.64502,0 2.998047,-0.91891 2.998047,-2.56392 V 296.5 c 0,-1.645 -1.353027,-2.55415 -2.998047,-2.55415 h -8.112093 c -0.586613,0 -1.026386,-0.88172 -1.026386,-1.44585 z"
           transform="matrix(0.26458334,0,0,0.26458334,0,280.06666)"
           id="path35407"
           sodipodi:nodetypes="cccccsssssssscc" />
      </g>
      <path
         id="rect84332"
         style="color:#000000;fill:#000000;stroke-width:0.794897;stroke-linecap:round;stroke-linejoin:round;-inkscape-stroke:none"
         d="m -27.724406,344.49219 c -0.435228,0 -0.79323,0.35955 -0.793233,0.79478 v 0.31006 c -0.307036,0.11017 -0.529167,0.4059 -0.529167,0.74879 3e-6,0.43525 0.357473,0.79272 0.792716,0.79272 h 0.662492 v 0.45733 l -0.220658,0.55862 c -0.204323,0.51888 -0.309024,1.07324 -0.309025,1.63091 v 1.05627 h -0.529167 v -0.79272 c 3e-6,-0.43525 -0.359541,-0.79323 -0.794783,-0.79323 -0.435244,0 -0.793237,0.35798 -0.793234,0.79323 v 4.76147 c -3e-6,0.43524 0.35799,0.7953 0.793234,0.7953 0.435242,0 0.794786,-0.36006 0.794783,-0.7953 v -0.79272 h 0.529167 v 1.85157 c 3e-6,0.43524 0.35799,0.79478 0.793233,0.79478 h 0.265617 v 0.79324 c 0,0.14926 -0.116357,0.26561 -0.265617,0.26561 h -2.117183 c -0.435244,0 -0.793237,0.35748 -0.793234,0.79272 v 0.26355 c -3e-6,0.43524 0.35799,0.7953 0.793234,0.7953 h 14.818217 c 0.435243,0 0.793235,-0.36006 0.793233,-0.7953 v -0.26355 c 2e-6,-0.43524 -0.35799,-0.79272 -0.793233,-0.79272 h -2.117184 c -0.14926,0 -0.265617,-0.11635 -0.265617,-0.26561 v -0.91209 c 0.773723,-0.2074 1.375774,-0.83926 1.542025,-1.62729 h 0.311609 c 0.435247,0 0.792723,-0.35954 0.792717,-0.79479 v -2.91041 c 0,-0.43524 -0.357472,-0.79272 -0.792717,-0.79272 h -0.302307 c -0.163395,-0.86419 -0.860639,-1.54222 -1.732194,-1.67845 -0.213806,-0.0377 -0.426011,-0.0238 -0.651123,-0.0207 -0.335486,0.004 -0.621109,0.2294 -0.718303,0.53485 h -2.418457 v -0.52917 c 0.289107,0 0.529167,-0.24006 0.529167,-0.52916 v -0.52917 c 0,-0.28911 -0.24006,-0.52968 -0.529167,-0.52968 h -2.644283 c -0.289106,0 -0.529683,0.24057 -0.529683,0.52968 v 0.52917 c 0,0.2891 0.240577,0.52916 0.529683,0.52916 v 0.52917 h -1.885673 c -0.04534,-0.37641 -0.138986,-0.7463 -0.280603,-1.09968 l -0.216524,-0.53691 v -0.48059 h 0.661975 c 0.435246,1e-5 0.794784,-0.35747 0.794784,-0.79272 -3e-6,-0.34232 -0.222412,-0.63767 -0.529167,-0.74828 v -0.31057 c -3e-6,-0.43523 -0.359557,-0.79478 -0.794784,-0.79478 z m 0,0.52916 h 1.851566 c 0.149245,0 0.265616,0.11637 0.265617,0.26562 v 0.26407 h -2.3828 v -0.26407 c 1e-6,-0.14925 0.116371,-0.26562 0.265617,-0.26562 z m 2.380731,1.05885 c 0.149262,0 0.265616,0.11636 0.265617,0.26562 0,0.14926 -0.116355,0.26356 -0.265617,0.26355 h -2.910417 c -0.149261,0 -0.263548,-0.11428 -0.263549,-0.26355 0,-0.1446 0.107185,-0.25865 0.249597,-0.26562 z m -1.718756,1.0604 h 0.529167 v 0.52917 c -6.18e-4,0.0341 0.0053,0.0679 0.01757,0.0997 l 0.234611,0.58188 c 0.182506,0.45541 0.275435,0.9434 0.275435,1.43402 v 6.08387 c -10e-7,0.14926 -0.114805,0.26562 -0.264067,0.26562 h -1.058333 c -0.149262,0 -0.263549,-0.11636 -0.26355,-0.26562 v -6.08387 c 1e-6,-0.49131 0.09129,-0.97843 0.271302,-1.43557 l 0.238228,-0.60565 c 0.01267,-0.031 0.01933,-0.0642 0.01964,-0.0977 z m 3.439583,0.52762 h 2.644283 v 0.52917 h -0.263549 -2.117184 -0.26355 z m 0.529167,1.05833 h 1.58595 v 1.05885 h -1.58595 z m 5.5547,0.51748 v 5.83169 c 5.7e-4,0.14613 0.119491,0.26412 0.265617,0.26355 0.145319,-5.7e-4 0.262982,-0.11823 0.263549,-0.26355 v -5.74901 c 0.616461,0.20906 1.05885,0.79095 1.05885,1.48157 -2e-6,1.22261 0,2.44537 0,3.66799 0,0.88489 -0.705268,1.60001 -1.590083,1.61127 l -0.300757,0.004 c -0.127554,10e-4 -0.226343,-0.0957 -0.226343,-0.22272 v -6.36705 c 0,-0.14901 0.100581,-0.25052 0.232027,-0.25219 z m -11.90625,0.54137 c 0.149258,0 0.265616,0.11429 0.265616,0.26355 v 4.76147 c 0,0.14926 -0.116358,0.26562 -0.265616,0.26562 -0.14926,0 -0.263551,-0.11636 -0.26355,-0.26562 v -4.76147 c -1e-6,-0.14926 0.11429,-0.26355 0.26355,-0.26355 z m 3.96875,0 h 1.853633 c 0,0.28911 0.240048,0.52917 0.529167,0.52917 h 1.58595 c 0.289117,0 0.529166,-0.24006 0.529166,-0.52917 h 2.382801 v 5.82032 h -6.880717 v -0.52968 c 0.146935,5.7e-4 0.266193,-0.11869 0.265616,-0.26562 -5.7e-4,-0.14613 -0.119491,-0.26412 -0.265616,-0.26355 v -0.52917 c 0.146125,5.7e-4 0.265046,-0.11742 0.265616,-0.26355 5.71e-4,-0.14693 -0.118685,-0.26618 -0.265616,-0.26561 v -0.52969 c 0.146125,5.7e-4 0.265046,-0.11742 0.265616,-0.26355 5.71e-4,-0.14693 -0.118685,-0.26618 -0.265616,-0.26561 v -0.52917 c 0.146125,5.7e-4 0.265046,-0.11742 0.265616,-0.26355 8.61e-4,-0.14713 -0.118481,-0.26671 -0.265616,-0.26613 v -0.52917 c 0.146125,5.7e-4 0.265046,-0.11742 0.265616,-0.26355 -5.7e-4,-0.14613 -0.119491,-0.26412 -0.265616,-0.26355 z m 6.085416,0.52762 c -0.146329,2.9e-4 -0.26464,0.11929 -0.264066,0.26562 5.68e-4,0.14552 0.118545,0.26327 0.264066,0.26355 0.146126,5.7e-4 0.265047,-0.11742 0.265617,-0.26355 5.77e-4,-0.14693 -0.118682,-0.2662 -0.265617,-0.26562 z m -7.14375,5.2e-4 c -0.146325,2.9e-4 -0.264634,0.11929 -0.264066,0.26561 5.68e-4,0.14552 0.118545,0.26327 0.264066,0.26355 0.146126,5.7e-4 0.265047,-0.11742 0.265617,-0.26355 5.71e-4,-0.14693 -0.118686,-0.26619 -0.265617,-0.26561 z m 2.64635,0.52813 c -0.146329,2.9e-4 -0.26464,0.11929 -0.264066,0.26562 5.68e-4,0.14552 0.118545,0.26327 0.264066,0.26355 h 3.175517 c 0.145319,-5.7e-4 0.262983,-0.11823 0.26355,-0.26355 5.74e-4,-0.14613 -0.117423,-0.26505 -0.26355,-0.26562 z m 8.466667,0.10749 h 0.265617 c 0.14926,0 0.26355,0.11429 0.26355,0.26355 v 2.91041 c 2e-6,0.14927 -0.114286,0.26562 -0.26355,0.26562 h -0.265617 z m -13.22865,0.42168 h 0.529167 v 2.1177 h -0.529167 z m 4.761983,0.7953 c -0.145521,2.8e-4 -0.263498,0.11803 -0.264066,0.26355 -5.68e-4,0.14632 0.117741,0.26532 0.264066,0.26561 h 3.175517 c 0.146123,-5.7e-4 0.264118,-0.11949 0.26355,-0.26561 -5.67e-4,-0.14532 -0.118231,-0.26298 -0.26355,-0.26355 z m 4.4974,0.26355 c -0.146325,2.9e-4 -0.264634,0.11929 -0.264066,0.26561 2.83e-4,0.14572 0.118343,0.26379 0.264066,0.26407 0.146328,5.7e-4 0.265334,-0.11774 0.265617,-0.26407 5.71e-4,-0.14693 -0.118686,-0.26619 -0.265617,-0.26561 z m -7.14375,5.1e-4 c -0.146329,2.9e-4 -0.26464,0.11929 -0.264066,0.26562 5.68e-4,0.14552 0.118545,0.26327 0.264066,0.26355 0.146126,5.7e-4 0.265047,-0.11742 0.265617,-0.26355 5.77e-4,-0.14693 -0.118682,-0.2662 -0.265617,-0.26562 z m 2.64635,0.79427 c -0.145723,2.8e-4 -0.263783,0.11835 -0.264066,0.26407 -5.68e-4,0.14632 0.117741,0.26532 0.264066,0.26561 h 3.175517 c 0.146123,-5.7e-4 0.264118,-0.11949 0.26355,-0.26561 -2.81e-4,-0.14552 -0.118028,-0.2635 -0.26355,-0.26407 z m -2.64635,1.3224 c -0.146329,2.9e-4 -0.26464,0.11929 -0.264066,0.26562 5.68e-4,0.14552 0.118545,0.26327 0.264066,0.26355 0.146126,5.7e-4 0.265047,-0.11742 0.265617,-0.26355 5.77e-4,-0.14693 -0.118682,-0.2662 -0.265617,-0.26562 z m 2.64635,0 c -0.145521,2.8e-4 -0.263498,0.11803 -0.264066,0.26355 -5.74e-4,0.14633 0.117737,0.26533 0.264066,0.26562 h 3.175517 c 0.146127,-5.7e-4 0.264124,-0.11949 0.26355,-0.26562 -5.67e-4,-0.14532 -0.118231,-0.26298 -0.26355,-0.26355 z m 4.4974,0 c -0.146329,2.9e-4 -0.26464,0.11929 -0.264066,0.26562 5.68e-4,0.14552 0.118545,0.26327 0.264066,0.26355 0.146126,5.7e-4 0.265047,-0.11742 0.265617,-0.26355 5.77e-4,-0.14693 -0.118682,-0.2662 -0.265617,-0.26562 z m 0.844393,1.58802 c 0.109434,0.28551 0.388949,0.48983 0.710551,0.48627 l 0.29714,-0.004 v 0.57619 h -7.408334 c -0.145522,5.7e-4 -0.263269,0.11855 -0.26355,0.26407 -5.68e-4,0.14612 0.117427,0.26504 0.26355,0.26561 h 7.455876 c 0.110798,0.30641 0.405179,0.52917 0.747241,0.52917 h 2.117184 c 0.14926,0 0.263551,0.1143 0.26355,0.26355 v 0.26355 c 1e-6,0.14926 -0.11429,0.26562 -0.26355,0.26562 h -14.818217 c -0.14926,0 -0.263551,-0.11636 -0.26355,-0.26562 v -0.26355 c -1e-6,-0.14925 0.11429,-0.26355 0.26355,-0.26355 h 2.117183 c 0.342062,0 0.636443,-0.22276 0.747241,-0.52917 h 0.575159 c 0.146931,5.8e-4 0.266188,-0.11868 0.265617,-0.26561 -2.83e-4,-0.14633 -0.119289,-0.26464 -0.265617,-0.26407 h -0.527616 v -0.52917 h 0.263549 c 0.342301,0 0.636619,-0.22243 0.746725,-0.52916 z"
         sodipodi:nodetypes="sscsscccsccssccssccsscssssssssssssccscssccccccsssssscccccccscssssssccsscscssccccccscsscsccccccccccccccccccsccssccscccccsccsccsscccccsccsccscccccccccsssccsssccsscscccsccsccccscccsccsccccscccscscccscccccsssccsscscccscscccccccccssssssssssccccccscscc" />
    </g>
  </g>
</svg>
